0
SECTION
2
HEADER
9
$INSUNITS
70
4
9
$ACADVER
1
AC1014
9
$HANDSEED
5
FFFF
0
ENDSEC
0
SECTION
2
TABLES
0
TABLE
2
VPORT
5
8
100
AcDbSymbolTable
0
ENDTAB
0
TABLE
2
LTYPE
5
5
100
AcDbSymbolTable
0
LTYPE
5
14
100
AcDbSymbolTableRecord
100
AcDbLinetypeTableRecord
2
BYBLOCK
70
0
0
LTYPE
5
15
100
AcDbSymbolTableRecord
100
AcDbLinetypeTableRecord
2
BYLAYER
70
0
0
ENDTAB
0
TABLE
2
LAYER
5
2
100
AcDbSymbolTable
70
2
0
LAYER
5
50
100
AcDbSymbolTableRecord
100
AcDbLayerTableRecord
2
0
70
0
6
CONTINUOUS
0
ENDTAB
0
TABLE
2
STYLE
5
3
100
AcDbSymbolTable
70
1
0
STYLE
5
11
100
AcDbSymbolTableRecord
100
AcDbTextStyleTableRecord
2
STANDARD
70
0
0
ENDTAB
0
TABLE
2
VIEW
5
6
100
AcDbSymbolTable
70
0
0
ENDTAB
0
TABLE
2
UCS
5
7
100
AcDbSymbolTable
70
0
0
ENDTAB
0
TABLE
2
APPID
5
9
100
AcDbSymbolTable
70
2
0
APPID
5
12
100
AcDbSymbolTableRecord
100
AcDbRegAppTableRecord
2
ACAD
70
0
0
ENDTAB
0
TABLE
2
DIMSTYLE
5
A
100
AcDbSymbolTable
70
1
0
ENDTAB
0
TABLE
2
BLOCK_RECORD
5
1
100
AcDbSymbolTable
70
1
0
BLOCK_RECORD
5
1F
100
AcDbSymbolTableRecord
100
AcDbBlockTableRecord
2
*MODEL_SPACE
0
BLOCK_RECORD
5
1B
100
AcDbSymbolTableRecord
100
AcDbBlockTableRecord
2
*PAPER_SPACE
0
ENDTAB
0
ENDSEC
0
SECTION
2
BLOCKS
0
BLOCK
5
20
100
AcDbEntity
100
AcDbBlockBegin
2
*MODEL_SPACE
0
ENDBLK
5
21
100
AcDbEntity
100
AcDbBlockEnd
0
BLOCK
5
1C
100
AcDbEntity
100
AcDbBlockBegin
2
*PAPER_SPACE
0
ENDBLK
5
1D
100
AcDbEntity
100
AcDbBlockEnd
0
ENDSEC
0
SECTION
2
ENTITIES
0
LWPOLYLINE
5
100
100
AcDbEntity
8
0
100
AcDbPolyline
90
24
70
1
43
0.0
10
158
20
59.999999999999822
10
155.00000000000003
20
59.999999999999822
10
95.000000000000014
20
59.999999999999829
10
91.999999999999972
20
59.999999999999822
10
26.999995685421148
20
59.999999999999829
10
22.999995685421155
20
59.999999999999822
10
18.999995685421158
20
59.999999999999829
10
-4.3145788502212479e-06
20
59.999999999999829
10
-4.3145788439678348e-06
20
51.749999999999844
10
-4.3145788440625738e-06
20
49.749999999999844
10
-4.3145788443678851e-06
20
44.249999999999837
10
-4.3145788444626241e-06
20
42.249999999999837
10
-4.3145788397015103e-06
20
33.999999999999694
10
-4.3145788449994176e-06
20
29.999999999999694
10
-4.3145788541920638e-06
20
-15.000000000000743
10
4.9999956854211902
20
-20.000000000000739
10
244.9999956854212
20
-20.000000000000743
10
249.9999956854212
20
-15.000000000000743
10
249.9999956854212
20
-7.4162898044960457e-13
10
249.9999956854212
20
3.9999999999992664
10
249.9999956854212
20
59.999999999999815
10
230.99999568542114
20
59.999999999999815
10
226.99999568542114
20
59.999999999999815
10
222.99999568542114
20
59.999999999999815
0
CIRCLE
5
101
100
AcDbEntity
8
0
100
AcDbCircle
10
100.00000000000001
20
4.9999999999992397
30
0
40
1.7500000000000002
0
CIRCLE
5
102
100
AcDbEntity
8
0
100
AcDbCircle
10
150
20
54.999999999999254
30
0
40
1.7500000000000002
0
CIRCLE
5
103
100
AcDbEntity
8
0
100
AcDbCircle
10
99.999999999999986
20
54.999999999999261
30
0
40
1.7500000000000002
0
CIRCLE
5
104
100
AcDbEntity
8
0
100
AcDbCircle
10
150
20
4.9999999999992397
30
0
40
1.7500000000000002
0
CIRCLE
5
105
100
AcDbEntity
8
0
100
AcDbCircle
10
125.00000000000001
20
29.99999999999924
30
0
40
27.000000000000011
0
CIRCLE
5
106
100
AcDbEntity
8
0
100
AcDbCircle
10
125.00000000000001
20
-9.9999999999999432
30
0
40
2.5000000000000133
0
CIRCLE
5
107
100
AcDbEntity
8
0
100
AcDbCircle
10
15.000000000000018
20
-9.9999999999999432
30
0
40
2.5000000000000133
0
CIRCLE
5
108
100
AcDbEntity
8
0
100
AcDbCircle
10
235
20
-9.9999999999999432
30
0
40
2.5000000000000133
0
ENDSEC
0
SECTION
2
OBJECTS
0
DICTIONARY
5
C
100
AcDbDictionary
3
ACAD_GROUP
350
D
3
ACAD_MLINESTYLE
350
17
0
DICTIONARY
5
D
100
AcDbDictionary
0
DICTIONARY
5
1A
330
C
100
AcDbDictionary
0
DICTIONARY
5
17
100
AcDbDictionary
0
ENDSEC
0
EOF
