0
SECTION
2
HEADER
9
$INSUNITS
70
4
9
$ACADVER
1
AC1014
9
$HANDSEED
5
FFFF
0
ENDSEC
0
SECTION
2
TABLES
0
TABLE
2
VPORT
5
8
100
AcDbSymbolTable
0
ENDTAB
0
TABLE
2
LTYPE
5
5
100
AcDbSymbolTable
0
LTYPE
5
14
100
AcDbSymbolTableRecord
100
AcDbLinetypeTableRecord
2
BYBLOCK
70
0
0
LTYPE
5
15
100
AcDbSymbolTableRecord
100
AcDbLinetypeTableRecord
2
BYLAYER
70
0
0
ENDTAB
0
TABLE
2
LAYER
5
2
100
AcDbSymbolTable
70
2
0
LAYER
5
50
100
AcDbSymbolTableRecord
100
AcDbLayerTableRecord
2
0
70
0
6
CONTINUOUS
0
ENDTAB
0
TABLE
2
STYLE
5
3
100
AcDbSymbolTable
70
1
0
STYLE
5
11
100
AcDbSymbolTableRecord
100
AcDbTextStyleTableRecord
2
STANDARD
70
0
0
ENDTAB
0
TABLE
2
VIEW
5
6
100
AcDbSymbolTable
70
0
0
ENDTAB
0
TABLE
2
UCS
5
7
100
AcDbSymbolTable
70
0
0
ENDTAB
0
TABLE
2
APPID
5
9
100
AcDbSymbolTable
70
2
0
APPID
5
12
100
AcDbSymbolTableRecord
100
AcDbRegAppTableRecord
2
ACAD
70
0
0
ENDTAB
0
TABLE
2
DIMSTYLE
5
A
100
AcDbSymbolTable
70
1
0
ENDTAB
0
TABLE
2
BLOCK_RECORD
5
1
100
AcDbSymbolTable
70
1
0
BLOCK_RECORD
5
1F
100
AcDbSymbolTableRecord
100
AcDbBlockTableRecord
2
*MODEL_SPACE
0
BLOCK_RECORD
5
1B
100
AcDbSymbolTableRecord
100
AcDbBlockTableRecord
2
*PAPER_SPACE
0
ENDTAB
0
ENDSEC
0
SECTION
2
BLOCKS
0
BLOCK
5
20
100
AcDbEntity
100
AcDbBlockBegin
2
*MODEL_SPACE
0
ENDBLK
5
21
100
AcDbEntity
100
AcDbBlockEnd
0
BLOCK
5
1C
100
AcDbEntity
100
AcDbBlockBegin
2
*PAPER_SPACE
0
ENDBLK
5
1D
100
AcDbEntity
100
AcDbBlockEnd
0
ENDSEC
0
SECTION
2
ENTITIES
0
LINE
5
100
100
AcDbEntity
8
0
100
AcDbLine
10
-4.7456830654977398e-14
20
72.2500000550137
30
0
11
-4.7290297096320671e-14
21
74.250000044010974
31
0
0
LINE
5
101
100
AcDbEntity
8
0
100
AcDbLine
10
-4.8794298544143879e-14
20
64
30
-2.2204460492503131e-15
11
-4.7456830654977398e-14
21
72.2500000550137
31
0
0
LINE
5
102
100
AcDbEntity
8
0
100
AcDbLine
10
-4.7619894062938715e-14
20
79.750000000000028
30
0
11
-4.7453360503365823e-14
21
81.750000000000028
31
0
0
LINE
5
103
100
AcDbEntity
8
0
100
AcDbLine
10
-5.3290705182007514e-14
20
15
30
0
11
4.9999999999999449
21
10
31
0
0
LINE
5
104
100
AcDbEntity
8
0
100
AcDbLine
10
4.9999999999999449
20
10
30
0
11
209.99999999999997
21
10.000000000000016
31
0
0
CIRCLE
5
105
100
AcDbEntity
8
0
100
AcDbCircle
10
197.49999999999994
20
20.000000000000018
30
0
40
2.75
0
CIRCLE
5
106
100
AcDbEntity
8
0
100
AcDbCircle
10
17.499999999999947
20
20
30
0
40
2.75
0
LWPOLYLINE
5
107
100
AcDbEntity
8
0
100
AcDbPolyline
90
4
70
1
43
0.0
10
162.50000000000014
20
39.999999999999893
10
162.50000000000006
20
75.000000000000114
42
-0.99999999999999989
10
172.49999999999994
20
75.000000000000128
10
172.49999999999986
20
39.999999999999893
42
-0.99999999999999989
0
LWPOLYLINE
5
108
100
AcDbEntity
8
0
100
AcDbPolyline
90
4
70
1
43
0.0
10
42.500000000000128
20
39.999999999999893
10
42.500000000000128
20
75.000000000000114
42
-0.99999999999999989
10
52.499999999999915
20
75.000000000000128
10
52.499999999999915
20
39.999999999999893
42
-0.99999999999999989
0
LWPOLYLINE
5
109
100
AcDbEntity
8
0
100
AcDbPolyline
90
4
70
1
43
0.0
10
102.50000000000013
20
39.999999999999893
10
102.50000000000013
20
75.000000000000114
42
-0.99999999999999989
10
112.49999999999991
20
75.000000000000128
10
112.49999999999991
20
39.999999999999893
42
-0.99999999999999989
0
CIRCLE
5
110
100
AcDbEntity
8
0
100
AcDbCircle
10
107.49999999999994
20
20.000000000000007
30
0
40
2.75
0
LINE
5
111
100
AcDbEntity
8
0
100
AcDbLine
10
-5.3290705182007514e-14
20
15
30
0
11
-4.9127365663289663e-14
21
60
31
0
0
LINE
5
112
100
AcDbEntity
8
0
100
AcDbLine
10
214.99999999999997
20
73
30
0
11
214.99999999999997
21
15.000000000000018
31
0
0
LINE
5
113
100
AcDbEntity
8
0
100
AcDbLine
10
209.99999999999997
20
10.000000000000016
30
0
11
214.99999999999997
21
15.000000000000018
31
0
0
LINE
5
114
100
AcDbEntity
8
0
100
AcDbLine
10
214.99999999999997
20
77.000000000000014
30
0
11
214.99999999999997
21
73
31
0
0
LINE
5
115
100
AcDbEntity
8
0
100
AcDbLine
10
214.99999999999997
20
81
30
0
11
214.99999999999997
21
77.000000000000014
31
0
0
LINE
5
116
100
AcDbEntity
8
0
100
AcDbLine
10
214.99999999999989
20
90.000000000000014
30
-2.2204460492503131e-15
11
214.99999999999997
21
81
31
0
0
LINE
5
117
100
AcDbEntity
8
0
100
AcDbLine
10
195.99999999999991
20
90.000000000000014
30
-2.2204460492503131e-15
11
214.99999999999989
21
90.000000000000014
31
-2.2204460492503131e-15
0
LINE
5
118
100
AcDbEntity
8
0
100
AcDbLine
10
187.99999999999994
20
90.000000000000014
30
2.2204460492503131e-15
11
191.99999999999991
21
90.000000000000014
31
2.2204460492503131e-15
0
LINE
5
119
100
AcDbEntity
8
0
100
AcDbLine
10
26.99999999999994
20
90.000000000000014
30
0
11
187.99999999999994
21
90.000000000000014
31
2.2204460492503131e-15
0
LINE
5
120
100
AcDbEntity
8
0
100
AcDbLine
10
191.99999999999991
20
90.000000000000014
30
2.2204460492503131e-15
11
195.99999999999991
21
90.000000000000014
31
-2.2204460492503131e-15
0
LINE
5
121
100
AcDbEntity
8
0
100
AcDbLine
10
22.999999999999954
20
90.000000000000014
30
-2.2204460492503131e-15
11
26.99999999999994
21
90.000000000000014
31
0
0
LINE
5
122
100
AcDbEntity
8
0
100
AcDbLine
10
18.999999999999943
20
90.000000000000014
30
-2.2204460492503131e-15
11
22.999999999999954
21
90.000000000000014
31
-2.2204460492503131e-15
0
LINE
5
123
100
AcDbEntity
8
0
100
AcDbLine
10
-4.9127365663289663e-14
20
60
30
0
11
-4.8794298544143879e-14
21
64
31
-2.2204460492503131e-15
0
LINE
5
124
100
AcDbEntity
8
0
100
AcDbLine
10
-4.7619894062938715e-14
20
79.750000000000028
30
0
11
-4.6858345914109011e-14
21
74.25
31
0
0
LINE
5
125
100
AcDbEntity
8
0
100
AcDbLine
10
-4.7453360503365823e-14
20
81.750000000000028
30
0
11
-4.6629362269696284e-14
21
90.000000000000014
31
-2.2204460492503131e-15
0
LINE
5
126
100
AcDbEntity
8
0
100
AcDbLine
10
-4.6629362269696284e-14
20
90.000000000000014
30
-2.2204460492503131e-15
11
18.999999999999943
21
90.000000000000014
31
-2.2204460492503131e-15
0
ENDSEC
0
SECTION
2
OBJECTS
0
DICTIONARY
5
C
100
AcDbDictionary
3
ACAD_GROUP
350
D
3
ACAD_MLINESTYLE
350
17
0
DICTIONARY
5
D
100
AcDbDictionary
0
DICTIONARY
5
1A
330
C
100
AcDbDictionary
0
DICTIONARY
5
17
100
AcDbDictionary
0
ENDSEC
0
EOF
