0
SECTION
2
HEADER
9
$INSUNITS
70
4
9
$ACADVER
1
AC1014
9
$HANDSEED
5
FFFF
0
ENDSEC
0
SECTION
2
TABLES
0
TABLE
2
VPORT
5
8
100
AcDbSymbolTable
0
ENDTAB
0
TABLE
2
LTYPE
5
5
100
AcDbSymbolTable
0
LTYPE
5
14
100
AcDbSymbolTableRecord
100
AcDbLinetypeTableRecord
2
BYBLOCK
70
0
0
LTYPE
5
15
100
AcDbSymbolTableRecord
100
AcDbLinetypeTableRecord
2
BYLAYER
70
0
0
ENDTAB
0
TABLE
2
LAYER
5
2
100
AcDbSymbolTable
70
2
0
LAYER
5
50
100
AcDbSymbolTableRecord
100
AcDbLayerTableRecord
2
0
70
0
6
CONTINUOUS
0
ENDTAB
0
TABLE
2
STYLE
5
3
100
AcDbSymbolTable
70
1
0
STYLE
5
11
100
AcDbSymbolTableRecord
100
AcDbTextStyleTableRecord
2
STANDARD
70
0
0
ENDTAB
0
TABLE
2
VIEW
5
6
100
AcDbSymbolTable
70
0
0
ENDTAB
0
TABLE
2
UCS
5
7
100
AcDbSymbolTable
70
0
0
ENDTAB
0
TABLE
2
APPID
5
9
100
AcDbSymbolTable
70
2
0
APPID
5
12
100
AcDbSymbolTableRecord
100
AcDbRegAppTableRecord
2
ACAD
70
0
0
ENDTAB
0
TABLE
2
DIMSTYLE
5
A
100
AcDbSymbolTable
70
1
0
ENDTAB
0
TABLE
2
BLOCK_RECORD
5
1
100
AcDbSymbolTable
70
1
0
BLOCK_RECORD
5
1F
100
AcDbSymbolTableRecord
100
AcDbBlockTableRecord
2
*MODEL_SPACE
0
BLOCK_RECORD
5
1B
100
AcDbSymbolTableRecord
100
AcDbBlockTableRecord
2
*PAPER_SPACE
0
ENDTAB
0
ENDSEC
0
SECTION
2
BLOCKS
0
BLOCK
5
20
100
AcDbEntity
100
AcDbBlockBegin
2
*MODEL_SPACE
0
ENDBLK
5
21
100
AcDbEntity
100
AcDbBlockEnd
0
BLOCK
5
1C
100
AcDbEntity
100
AcDbBlockBegin
2
*PAPER_SPACE
0
ENDBLK
5
1D
100
AcDbEntity
100
AcDbBlockEnd
0
ENDSEC
0
SECTION
2
ENTITIES
0
LWPOLYLINE
5
100
100
AcDbEntity
8
0
100
AcDbPolyline
90
6
70
1
43
0.0
10
181.51695800781243
20
54.405000000000015
10
176.63170410156243
20
40.030000000000015
10
168.97545410156243
20
40.030000000000015
10
172.11510253906243
20
49.268281250000015
10
167.91588378906243
20
49.268281250000015
10
169.66148925781243
20
54.405000000000015
0
LWPOLYLINE
5
101
100
AcDbEntity
8
0
100
AcDbPolyline
90
8
70
1
43
0.0
10
167.60826660156243
20
40.030000000000015
10
156.74889160156243
20
40.030000000000015
10
153.33214355468743
20
45.205781250000015
10
158.62236572265618
20
60.772187500000015
10
165.55687499999991
20
65.947968750000015
10
169.01390624999993
20
65.947968750000015
10
161.96495605468743
20
45.205781250000015
10
169.36729980468743
20
45.205781250000015
0
LWPOLYLINE
5
102
100
AcDbEntity
8
0
100
AcDbPolyline
90
4
70
1
43
0.0
10
155.84984374999993
20
65.947968750000015
10
147.87834716796868
20
42.490937500000015
10
144.56688476562493
20
54.873750000000015
10
148.33031249999993
20
65.947968750000015
0
LWPOLYLINE
5
103
100
AcDbEntity
8
0
100
AcDbPolyline
90
4
70
1
43
0.0
10
122.15904785156242
20
40.030000000000015
10
130.13084960937493
20
63.487031250000015
10
133.46214843749993
20
51.162812500000015
10
129.67857910156243
20
40.030000000000015
0
LWPOLYLINE
5
104
100
AcDbEntity
8
0
100
AcDbPolyline
90
4
70
1
43
0.0
10
147.04186035156243
20
40.030000000000015
10
137.86217285156243
20
40.030000000000015
10
130.96703124999993
20
65.947968750000015
10
140.08812499999993
20
65.947968750000015
0
LWPOLYLINE
5
105
100
AcDbEntity
8
0
100
AcDbPolyline
90
12
70
1
43
0.0
10
112.95921874999992
20
65.947968750000015
10
126.78734374999992
20
65.947968750000015
10
124.91570068359367
20
60.440156250000015
10
122.31804443359367
20
60.440156250000015
10
117.26006103515617
20
45.557343750000015
10
119.85771728515617
20
45.557343750000015
10
117.97936035156242
20
40.030000000000015
10
104.15123535156242
20
40.030000000000015
10
106.02959228515617
20
45.557343750000015
10
108.62724853515617
20
45.557343750000015
10
113.68523193359367
20
60.440156250000015
10
111.08757568359367
20
60.440156250000015
0
LWPOLYLINE
5
106
100
AcDbEntity
8
0
100
AcDbPolyline
90
7
70
1
43
0.0
10
170.38109374999993
20
65.947968750000015
10
180.90843749999993
20
65.947968750000015
10
183.68095947265618
20
60.772187500000015
10
182.79808593749993
20
58.174531250000015
10
174.16527343749993
20
58.174531250000015
10
175.04814697265618
20
60.772187500000015
10
168.62236572265618
20
60.772187500000015
0
LWPOLYLINE
5
107
100
AcDbEntity
8
0
100
AcDbPolyline
90
4
70
1
43
0.0
10
103.19420410156242
20
40.030000000000015
10
93.85826660156242
20
40.030000000000015
10
92.97966552734367
20
46.065156250000015
10
100.70549560546867
20
53.740937500000015
0
LWPOLYLINE
5
108
100
AcDbEntity
8
0
100
AcDbPolyline
90
4
70
1
43
0.0
10
88.99284912109367
20
43.701875000000015
10
93.27416015624992
20
56.299531250000015
10
102.60765624999992
20
65.947968750000015
10
111.59203124999992
20
65.94796875000003
0
LWPOLYLINE
5
109
100
AcDbEntity
8
0
100
AcDbPolyline
90
4
70
1
43
0.0
10
77.78404785156242
20
40.030000000000015
10
86.59203124999992
20
65.947968750000015
10
95.224843749999906
20
65.947968750000015
10
86.41686035156242
20
40.030000000000015
0
LWPOLYLINE
5
110
100
AcDbEntity
8
0
100
AcDbPolyline
90
4
70
1
43
0.0
10
59.53178955078117
20
54.483125000000015
10
76.77788330078117
20
54.483125000000015
10
75.19157958984367
20
49.815156250000015
10
57.94548583984367
20
49.815156250000015
0
LWPOLYLINE
5
111
100
AcDbEntity
8
0
100
AcDbPolyline
90
4
70
1
43
0.0
10
51.63109374999992
20
65.947968750000015
10
60.30296874999992
20
65.947968750000015
10
42.79564453124992
20
40.811250000000015
10
42.785268554687413
20
52.217500000000015
0
LWPOLYLINE
5
112
100
AcDbEntity
8
0
100
AcDbPolyline
90
4
70
1
43
0.0
10
41.47545410156242
20
40.030000000000015
10
33.07701660156242
20
40.030000000000015
10
32.509999999999927
20
65.947968750000015
10
41.31859374999992
20
65.947968750000015
0
CIRCLE
5
113
100
AcDbEntity
8
0
100
AcDbCircle
10
107.49999999999994
20
20.000000000000007
30
0
40
2.75
0
LINE
5
114
100
AcDbEntity
8
0
100
AcDbLine
10
214.99999999999997
20
77.000000000000014
30
0
11
214.99999999999997
21
73
31
0
0
LINE
5
115
100
AcDbEntity
8
0
100
AcDbLine
10
214.99999999999997
20
81
30
0
11
214.99999999999997
21
77.000000000000014
31
0
0
LINE
5
116
100
AcDbEntity
8
0
100
AcDbLine
10
195.99999999999991
20
90.000000000000014
30
-2.2204460492503131e-15
11
214.99999999999989
21
90.000000000000014
31
-2.2204460492503131e-15
0
LINE
5
117
100
AcDbEntity
8
0
100
AcDbLine
10
214.99999999999989
20
90.000000000000014
30
-2.2204460492503131e-15
11
214.99999999999997
21
81
31
0
0
LINE
5
118
100
AcDbEntity
8
0
100
AcDbLine
10
187.99999999999994
20
90.000000000000014
30
2.2204460492503131e-15
11
191.99999999999991
21
90.000000000000014
31
2.2204460492503131e-15
0
LINE
5
119
100
AcDbEntity
8
0
100
AcDbLine
10
26.99999999999994
20
90.000000000000014
30
0
11
187.99999999999994
21
90.000000000000014
31
2.2204460492503131e-15
0
LINE
5
120
100
AcDbEntity
8
0
100
AcDbLine
10
191.99999999999991
20
90.000000000000014
30
2.2204460492503131e-15
11
195.99999999999991
21
90.000000000000014
31
-2.2204460492503131e-15
0
LINE
5
121
100
AcDbEntity
8
0
100
AcDbLine
10
22.999999999999954
20
90.000000000000014
30
-2.2204460492503131e-15
11
26.99999999999994
21
90.000000000000014
31
0
0
LINE
5
122
100
AcDbEntity
8
0
100
AcDbLine
10
18.999999999999943
20
90.000000000000014
30
-2.2204460492503131e-15
11
22.999999999999954
21
90.000000000000014
31
-2.2204460492503131e-15
0
LINE
5
123
100
AcDbEntity
8
0
100
AcDbLine
10
-4.9779625104858473e-14
20
60
30
2.2204460492503131e-15
11
-4.9446557985712689e-14
21
64
31
2.2204460492503131e-15
0
LINE
5
124
100
AcDbEntity
8
0
100
AcDbLine
10
-4.9446557985712689e-14
20
64
30
2.2204460492503131e-15
11
-4.8107347606324892e-14
21
72.2500000550137
31
-2.2204460492503131e-15
0
LINE
5
125
100
AcDbEntity
8
0
100
AcDbLine
10
-4.8107347606324892e-14
20
72.2500000550137
30
-2.2204460492503131e-15
11
-4.7290297096320671e-14
21
74.250000044010974
31
0
0
LINE
5
126
100
AcDbEntity
8
0
100
AcDbLine
10
-4.7619894062938715e-14
20
79.750000000000028
30
0
11
-4.7453360503365823e-14
21
81.750000000000028
31
0
0
LINE
5
127
100
AcDbEntity
8
0
100
AcDbLine
10
-4.7453360503365823e-14
20
81.750000000000028
30
0
11
-4.6629362269696284e-14
21
90.000000000000014
31
-2.2204460492503131e-15
0
LINE
5
128
100
AcDbEntity
8
0
100
AcDbLine
10
-4.6629362269696284e-14
20
90.000000000000014
30
-2.2204460492503131e-15
11
18.999999999999943
21
90.000000000000014
31
-2.2204460492503131e-15
0
LINE
5
129
100
AcDbEntity
8
0
100
AcDbLine
10
-4.7619894062938715e-14
20
79.750000000000028
30
0
11
-4.6858345914109011e-14
21
74.25
31
0
0
LINE
5
130
100
AcDbEntity
8
0
100
AcDbLine
10
-5.3290705182007514e-14
20
15
30
0
11
4.9999999999999449
21
10
31
0
0
LINE
5
131
100
AcDbEntity
8
0
100
AcDbLine
10
4.9999999999999449
20
10
30
0
11
209.99999999999997
21
10.000000000000016
31
0
0
CIRCLE
5
132
100
AcDbEntity
8
0
100
AcDbCircle
10
197.49999999999994
20
20.000000000000018
30
0
40
2.75
0
CIRCLE
5
133
100
AcDbEntity
8
0
100
AcDbCircle
10
17.499999999999947
20
20
30
0
40
2.75
0
LINE
5
134
100
AcDbEntity
8
0
100
AcDbLine
10
214.99999999999997
20
73
30
0
11
214.99999999999997
21
15.000000000000018
31
0
0
LINE
5
135
100
AcDbEntity
8
0
100
AcDbLine
10
209.99999999999997
20
10.000000000000016
30
0
11
214.99999999999997
21
15.000000000000018
31
0
0
LINE
5
136
100
AcDbEntity
8
0
100
AcDbLine
10
-5.3290705182007514e-14
20
15
30
0
11
-4.9779625104858473e-14
21
60
31
2.2204460492503131e-15
0
ENDSEC
0
SECTION
2
OBJECTS
0
DICTIONARY
5
C
100
AcDbDictionary
3
ACAD_GROUP
350
D
3
ACAD_MLINESTYLE
350
17
0
DICTIONARY
5
D
100
AcDbDictionary
0
DICTIONARY
5
1A
330
C
100
AcDbDictionary
0
DICTIONARY
5
17
100
AcDbDictionary
0
ENDSEC
0
EOF
