0
SECTION
2
HEADER
9
$INSUNITS
70
4
9
$ACADVER
1
AC1014
9
$HANDSEED
5
FFFF
0
ENDSEC
0
SECTION
2
TABLES
0
TABLE
2
VPORT
5
8
100
AcDbSymbolTable
0
ENDTAB
0
TABLE
2
LTYPE
5
5
100
AcDbSymbolTable
0
LTYPE
5
14
100
AcDbSymbolTableRecord
100
AcDbLinetypeTableRecord
2
BYBLOCK
70
0
0
LTYPE
5
15
100
AcDbSymbolTableRecord
100
AcDbLinetypeTableRecord
2
BYLAYER
70
0
0
ENDTAB
0
TABLE
2
LAYER
5
2
100
AcDbSymbolTable
70
2
0
LAYER
5
50
100
AcDbSymbolTableRecord
100
AcDbLayerTableRecord
2
0
70
0
6
CONTINUOUS
0
ENDTAB
0
TABLE
2
STYLE
5
3
100
AcDbSymbolTable
70
1
0
STYLE
5
11
100
AcDbSymbolTableRecord
100
AcDbTextStyleTableRecord
2
STANDARD
70
0
0
ENDTAB
0
TABLE
2
VIEW
5
6
100
AcDbSymbolTable
70
0
0
ENDTAB
0
TABLE
2
UCS
5
7
100
AcDbSymbolTable
70
0
0
ENDTAB
0
TABLE
2
APPID
5
9
100
AcDbSymbolTable
70
2
0
APPID
5
12
100
AcDbSymbolTableRecord
100
AcDbRegAppTableRecord
2
ACAD
70
0
0
ENDTAB
0
TABLE
2
DIMSTYLE
5
A
100
AcDbSymbolTable
70
1
0
ENDTAB
0
TABLE
2
BLOCK_RECORD
5
1
100
AcDbSymbolTable
70
1
0
BLOCK_RECORD
5
1F
100
AcDbSymbolTableRecord
100
AcDbBlockTableRecord
2
*MODEL_SPACE
0
BLOCK_RECORD
5
1B
100
AcDbSymbolTableRecord
100
AcDbBlockTableRecord
2
*PAPER_SPACE
0
ENDTAB
0
ENDSEC
0
SECTION
2
BLOCKS
0
BLOCK
5
20
100
AcDbEntity
100
AcDbBlockBegin
2
*MODEL_SPACE
0
ENDBLK
5
21
100
AcDbEntity
100
AcDbBlockEnd
0
BLOCK
5
1C
100
AcDbEntity
100
AcDbBlockBegin
2
*PAPER_SPACE
0
ENDBLK
5
1D
100
AcDbEntity
100
AcDbBlockEnd
0
ENDSEC
0
SECTION
2
ENTITIES
0
LWPOLYLINE
5
100
100
AcDbEntity
8
0
100
AcDbPolyline
90
20
70
1
43
0.0
10
249.9999956854212
20
49.749999999999858
10
249.9999956854212
20
51.749999999999865
10
249.9999956854212
20
59.999999999999815
10
230.99999568542114
20
59.999999999999815
10
226.99999568542114
20
59.999999999999815
10
222.99999568542114
20
59.999999999999815
10
26.999995685421155
20
59.999999999999822
10
22.999995685421155
20
59.999999999999822
10
18.999995685421133
20
59.999999999999829
10
-4.3145788453102796e-06
20
59.999999999999822
10
-4.3145788456892353e-06
20
3.9999999999992619
10
-4.3145788464205026e-06
20
-7.2830630415410269e-13
10
-4.3145788541920638e-06
20
-15.000000000000743
10
4.9999956854211902
20
-20.000000000000739
10
244.9999956854212
20
-20.000000000000743
10
249.9999956854212
20
-15.000000000000743
10
249.9999956854212
20
29.999999999999808
10
249.9999956854212
20
33.999999999999808
10
249.9999956854212
20
42.249999999999858
10
249.9999956854212
20
44.249999999999844
0
LWPOLYLINE
5
101
100
AcDbEntity
8
0
100
AcDbPolyline
90
6
70
1
43
0.0
10
198.12628787570719
20
24.194827387347203
10
193.25875329893529
20
9.9109359979350096
10
185.6488735724472
20
9.9172606571000337
10
188.77713620179202
20
19.09699068680268
10
184.60335338732318
20
19.100459566033248
10
186.34262533475032
20
24.204620925742802
0
LWPOLYLINE
5
102
100
AcDbEntity
8
0
100
AcDbPolyline
90
8
70
1
43
0.0
10
184.28996443484439
20
9.9183900622208103
10
173.49636808026554
20
9.9273607451436909
10
170.10459153415428
20
15.074613057691383
10
175.37562748573151
20
30.542361205222765
10
182.27241016088615
20
35.681062577057517
10
185.70850707290538
20
35.678206797123067
10
178.6851111079045
20
15.067481688509046
10
186.04262008720406
20
15.06136677759452
0
LWPOLYLINE
5
103
100
AcDbEntity
8
0
100
AcDbPolyline
90
4
70
1
43
0.0
10
172.62418580147363
20
35.689081328051522
10
164.68159916394981
20
12.380719216895557
10
161.40042282978001
20
24.691261274717604
10
165.15020461813776
20
35.695293040363595
0
LWPOLYLINE
5
104
100
AcDbEntity
8
0
100
AcDbPolyline
90
4
70
1
43
0.0
10
139.11604891487661
20
9.9559346265348871
10
147.05894072807627
20
33.264296484055812
10
150.35987790425682
20
21.011974145013681
10
146.59003009821248
20
9.9497229142228143
0
LWPOLYLINE
5
105
100
AcDbEntity
8
0
100
AcDbPolyline
90
4
70
1
43
0.0
10
163.84814372085293
20
9.9353794961376938
10
154.72405858471365
20
9.9429626289535644
10
147.89209099549726
20
35.709636458448713
10
156.95793526124851
20
35.702101730294672
0
LWPOLYLINE
5
106
100
AcDbEntity
8
0
100
AcDbPolyline
90
12
70
1
43
0.0
10
129.99335640880736
20
35.724512304035606
10
143.73772498340441
20
35.71308920014998
10
141.87286233068966
20
30.240184245954946
10
139.29094259863618
20
30.242330109343545
10
134.25130813818066
20
15.453844679485467
10
136.83322787023411
20
15.451698816096872
10
134.96168290278376
20
9.9593873682361505
10
121.21731432818669
20
9.9708104721217889
10
123.08885929563706
20
15.463121919982505
10
125.67077902769056
20
15.460976056593909
10
130.71042302488596
20
30.249461478525884
10
128.12850329283248
20
30.251607341914486
0
LWPOLYLINE
5
107
100
AcDbEntity
8
0
100
AcDbPolyline
90
7
70
1
43
0.0
10
187.06740667376835
20
35.677077399928379
10
197.53098414513448
20
35.668380999521034
10
200.28243536613223
20
30.521660868766194
10
199.40276638060311
20
27.940466880061521
10
190.82224680685289
20
27.94759824924386
10
191.70191579238207
20
30.528792237948529
10
185.31505619708454
20
30.534100430919644
0
LWPOLYLINE
5
108
100
AcDbEntity
8
0
100
AcDbPolyline
90
4
70
1
43
0.0
10
120.26607220982079
20
9.9716010604619836
10
110.98668603326311
20
9.9793132657709727
10
110.11839226913089
20
15.978638899981725
10
117.80376845355687
20
23.601543756863364
0
LWPOLYLINE
5
109
100
AcDbEntity
8
0
100
AcDbPolyline
90
4
70
1
43
0.0
10
106.15377678087404
20
13.632966528044484
10
110.41955781099519
20
26.150778280515151
10
119.70449201186561
20
35.733063498383579
10
128.63444727120452
20
35.725641709156392
0
LWPOLYLINE
5
110
100
AcDbEntity
8
0
100
AcDbPolyline
90
4
70
1
43
0.0
10
95.00983341220126
20
9.9925918130003577
10
103.7858754928219
20
35.746293644914182
10
112.36639983494206
20
35.739162271768784
10
103.5903577543214
20
9.9854604398549629
0
LWPOLYLINE
5
111
100
AcDbEntity
8
0
100
AcDbPolyline
90
4
70
1
43
0.0
10
76.880073087822623
20
24.373249478552033
10
94.021702585501941
20
24.359002871772084
10
92.441151583214335
20
19.720617808696247
10
75.299522085535003
20
19.734864415476203
0
LWPOLYLINE
5
112
100
AcDbEntity
8
0
100
AcDbPolyline
90
4
70
1
43
0.0
10
69.036703839468316
20
35.775174083879534
10
77.656052249600563
20
35.768010443601625
10
60.234008213342051
20
10.798012063429132
10
60.2331178678212
20
22.135182551478039
0
LWPOLYLINE
5
113
100
AcDbEntity
8
0
100
AcDbPolyline
90
4
70
1
43
0.0
10
58.921169423620825
20
10.02258551955717
10
50.573602602590654
20
10.029523279009073
10
50.031430862364061
20
35.790969586336686
10
58.78666947100109
20
35.783693006141164
0
CIRCLE
5
114
100
AcDbEntity
8
0
100
AcDbCircle
10
125.00000000000001
20
-9.9999999999999432
30
0
40
2.5000000000000133
0
CIRCLE
5
115
100
AcDbEntity
8
0
100
AcDbCircle
10
15.000000000000018
20
-9.9999999999999432
30
0
40
2.5000000000000133
0
CIRCLE
5
116
100
AcDbEntity
8
0
100
AcDbCircle
10
235
20
-9.9999999999999432
30
0
40
2.5000000000000133
0
ENDSEC
0
SECTION
2
OBJECTS
0
DICTIONARY
5
C
100
AcDbDictionary
3
ACAD_GROUP
350
D
3
ACAD_MLINESTYLE
350
17
0
DICTIONARY
5
D
100
AcDbDictionary
0
DICTIONARY
5
1A
330
C
100
AcDbDictionary
0
DICTIONARY
5
17
100
AcDbDictionary
0
ENDSEC
0
EOF
