0
SECTION
2
HEADER
9
$INSUNITS
70
4
9
$ACADVER
1
AC1014
9
$HANDSEED
5
FFFF
0
ENDSEC
0
SECTION
2
TABLES
0
TABLE
2
VPORT
5
8
100
AcDbSymbolTable
0
ENDTAB
0
TABLE
2
LTYPE
5
5
100
AcDbSymbolTable
0
LTYPE
5
14
100
AcDbSymbolTableRecord
100
AcDbLinetypeTableRecord
2
BYBLOCK
70
0
0
LTYPE
5
15
100
AcDbSymbolTableRecord
100
AcDbLinetypeTableRecord
2
BYLAYER
70
0
0
ENDTAB
0
TABLE
2
LAYER
5
2
100
AcDbSymbolTable
70
2
0
LAYER
5
50
100
AcDbSymbolTableRecord
100
AcDbLayerTableRecord
2
0
70
0
6
CONTINUOUS
0
ENDTAB
0
TABLE
2
STYLE
5
3
100
AcDbSymbolTable
70
1
0
STYLE
5
11
100
AcDbSymbolTableRecord
100
AcDbTextStyleTableRecord
2
STANDARD
70
0
0
ENDTAB
0
TABLE
2
VIEW
5
6
100
AcDbSymbolTable
70
0
0
ENDTAB
0
TABLE
2
UCS
5
7
100
AcDbSymbolTable
70
0
0
ENDTAB
0
TABLE
2
APPID
5
9
100
AcDbSymbolTable
70
2
0
APPID
5
12
100
AcDbSymbolTableRecord
100
AcDbRegAppTableRecord
2
ACAD
70
0
0
ENDTAB
0
TABLE
2
DIMSTYLE
5
A
100
AcDbSymbolTable
70
1
0
ENDTAB
0
TABLE
2
BLOCK_RECORD
5
1
100
AcDbSymbolTable
70
1
0
BLOCK_RECORD
5
1F
100
AcDbSymbolTableRecord
100
AcDbBlockTableRecord
2
*MODEL_SPACE
0
BLOCK_RECORD
5
1B
100
AcDbSymbolTableRecord
100
AcDbBlockTableRecord
2
*PAPER_SPACE
0
ENDTAB
0
ENDSEC
0
SECTION
2
BLOCKS
0
BLOCK
5
20
100
AcDbEntity
100
AcDbBlockBegin
2
*MODEL_SPACE
0
ENDBLK
5
21
100
AcDbEntity
100
AcDbBlockEnd
0
BLOCK
5
1C
100
AcDbEntity
100
AcDbBlockBegin
2
*PAPER_SPACE
0
ENDBLK
5
1D
100
AcDbEntity
100
AcDbBlockEnd
0
ENDSEC
0
SECTION
2
ENTITIES
0
LWPOLYLINE
5
100
100
AcDbEntity
8
0
100
AcDbPolyline
90
24
70
1
43
0.0
10
39.999995685421169
20
59.999999999999822
10
36.999995685421176
20
59.999999999999822
10
26.999995685421148
20
59.999999999999829
10
22.999995685421155
20
59.999999999999822
10
18.999995685421133
20
59.999999999999829
10
-4.3145788453102796e-06
20
59.999999999999822
10
-4.3145788456892353e-06
20
3.9999999999992619
10
-4.3145788464205026e-06
20
-7.2830630415410269e-13
10
-4.3145788541920638e-06
20
-15.000000000000743
10
4.9999956854211902
20
-20.000000000000743
10
244.9999956854212
20
-20.000000000000739
10
249.9999956854212
20
-15.000000000000743
10
249.9999956854212
20
29.999999999999808
10
249.9999956854212
20
33.999999999999808
10
249.9999956854212
20
42.249999999999837
10
249.9999956854212
20
44.249999999999829
10
249.9999956854212
20
49.749999999999815
10
249.9999956854212
20
51.749999999999844
10
249.9999956854212
20
59.999999999999815
10
230.99999568542114
20
59.999999999999815
10
226.99999568542114
20
59.999999999999815
10
222.99999568542114
20
59.999999999999815
10
102.99999568542117
20
59.999999999999822
10
99.999995685421155
20
59.999999999999822
0
CIRCLE
5
101
100
AcDbEntity
8
0
100
AcDbCircle
10
44.99999568542114
20
54.999999999999844
30
0
40
2
0
CIRCLE
5
102
100
AcDbEntity
8
0
100
AcDbCircle
10
94.99999568542114
20
4.9999999999998357
30
0
40
2
0
CIRCLE
5
103
100
AcDbEntity
8
0
100
AcDbCircle
10
94.99999568542114
20
54.999999999999844
30
0
40
2
0
CIRCLE
5
104
100
AcDbEntity
8
0
100
AcDbCircle
10
44.99999568542114
20
4.9999999999998357
30
0
40
2
0
CIRCLE
5
105
100
AcDbEntity
8
0
100
AcDbCircle
10
69.99999568542114
20
29.999999999999829
30
0
40
27
0
LWPOLYLINE
5
106
100
AcDbEntity
8
0
100
AcDbPolyline
90
4
70
1
43
0.0
10
214.9999956854212
20
34.999999999999261
10
214.9999956854212
20
4.9999999999992584
10
166.9999956854212
20
4.9999999999992584
10
166.9999956854212
20
34.999999999999261
0
CIRCLE
5
107
100
AcDbEntity
8
0
100
AcDbCircle
10
15.000000000000018
20
-9.9999999999999432
30
0
40
2.5000000000000133
0
CIRCLE
5
108
100
AcDbEntity
8
0
100
AcDbCircle
10
235
20
-9.9999999999999432
30
0
40
2.5000000000000133
0
CIRCLE
5
109
100
AcDbEntity
8
0
100
AcDbCircle
10
125.00000000000001
20
-9.9999999999999432
30
0
40
2.5000000000000133
0
CIRCLE
5
110
100
AcDbEntity
8
0
100
AcDbCircle
10
162.99999568542117
20
19.999999999999257
30
0
40
1.7500000000000002
0
CIRCLE
5
111
100
AcDbEntity
8
0
100
AcDbCircle
10
218.99999568542117
20
19.999999999999257
30
0
40
1.7500000000000002
0
ENDSEC
0
SECTION
2
OBJECTS
0
DICTIONARY
5
C
100
AcDbDictionary
3
ACAD_GROUP
350
D
3
ACAD_MLINESTYLE
350
17
0
DICTIONARY
5
D
100
AcDbDictionary
0
DICTIONARY
5
1A
330
C
100
AcDbDictionary
0
DICTIONARY
5
17
100
AcDbDictionary
0
ENDSEC
0
EOF
